<svg xmlns="http://www.w3.org/2000/svg" width="1120" height="280" viewBox="0 0 1120 280">
  <defs>
    <marker id="arrow" markerWidth="10" markerHeight="10" refX="9" refY="3" orient="auto">
      <path d="M0,0 L10,3 L0,6 Z" fill="#1f2937"/>
    </marker>
  </defs>
  <rect width="1120" height="280" fill="#ffffff"/>
  <text x="30" y="36" font-size="24" font-family="Segoe UI, Arial">閉ループ制御の基本構成</text>

  <text x="70" y="150" font-size="22" font-family="Segoe UI, Arial">目標値 r</text>
  <line x1="160" y1="145" x2="230" y2="145" stroke="#1f2937" stroke-width="3" marker-end="url(#arrow)"/>

  <circle cx="265" cy="145" r="24" fill="#fff7ed" stroke="#c2410c" stroke-width="2"/>
  <text x="256" y="153" font-size="28" font-family="Segoe UI, Arial">Σ</text>

  <text x="320" y="127" font-size="18" font-family="Segoe UI, Arial">誤差 e</text>
  <line x1="289" y1="145" x2="400" y2="145" stroke="#1f2937" stroke-width="3" marker-end="url(#arrow)"/>

  <rect x="400" y="110" width="170" height="70" rx="8" fill="#eff6ff" stroke="#2563eb" stroke-width="2"/>
  <text x="452" y="152" font-size="22" font-family="Segoe UI, Arial">制御器 C</text>

  <text x="600" y="127" font-size="18" font-family="Segoe UI, Arial">操作量 u</text>
  <line x1="570" y1="145" x2="660" y2="145" stroke="#1f2937" stroke-width="3" marker-end="url(#arrow)"/>

  <rect x="660" y="110" width="190" height="70" rx="8" fill="#ecfdf5" stroke="#059669" stroke-width="2"/>
  <text x="712" y="152" font-size="22" font-family="Segoe UI, Arial">プラント P</text>

  <line x1="850" y1="145" x2="940" y2="145" stroke="#1f2937" stroke-width="3" marker-end="url(#arrow)"/>
  <text x="958" y="151" font-size="22" font-family="Segoe UI, Arial">出力 y</text>

  <line x1="770" y1="70" x2="770" y2="108" stroke="#1f2937" stroke-width="3" marker-end="url(#arrow)"/>
  <text x="782" y="92" font-size="18" font-family="Segoe UI, Arial">外乱 d</text>

  <line x1="930" y1="145" x2="930" y2="225" stroke="#1f2937" stroke-width="3"/>
  <line x1="930" y1="225" x2="265" y2="225" stroke="#1f2937" stroke-width="3"/>
  <line x1="265" y1="225" x2="265" y2="169" stroke="#1f2937" stroke-width="3" marker-end="url(#arrow)"/>
  <text x="945" y="217" font-size="18" font-family="Segoe UI, Arial">フィードバック</text>
</svg>
