<svg xmlns="http://www.w3.org/2000/svg" width="980" height="420" viewBox="0 0 980 420">
  <defs>
    <marker id="arrow" markerWidth="10" markerHeight="10" refX="9" refY="3" orient="auto">
      <path d="M0,0 L10,3 L0,6 Z" fill="#1f2937"/>
    </marker>
  </defs>
  <rect width="980" height="420" fill="#ffffff"/>

  <text x="40" y="40" font-size="28" font-family="Segoe UI, Arial">開ループ</text>
  <text x="40" y="240" font-size="28" font-family="Segoe UI, Arial">閉ループ</text>

  <text x="50" y="115" font-size="22" font-family="Segoe UI, Arial">目標値 r</text>
  <line x1="150" y1="108" x2="220" y2="108" stroke="#1f2937" stroke-width="3" marker-end="url(#arrow)"/>
  <rect x="220" y="73" width="150" height="70" rx="8" fill="#eff6ff" stroke="#2563eb" stroke-width="2"/>
  <text x="263" y="102" font-size="20" font-family="Segoe UI, Arial">補償器</text>
  <text x="294" y="126" font-size="20" font-family="Segoe UI, Arial">F</text>
  <line x1="370" y1="108" x2="470" y2="108" stroke="#1f2937" stroke-width="3" marker-end="url(#arrow)"/>
  <rect x="470" y="73" width="170" height="70" rx="8" fill="#ecfdf5" stroke="#059669" stroke-width="2"/>
  <text x="522" y="115" font-size="22" font-family="Segoe UI, Arial">プラント P</text>
  <line x1="640" y1="108" x2="740" y2="108" stroke="#1f2937" stroke-width="3" marker-end="url(#arrow)"/>
  <text x="758" y="114" font-size="22" font-family="Segoe UI, Arial">出力 y</text>

  <text x="50" y="315" font-size="22" font-family="Segoe UI, Arial">目標値 r</text>
  <line x1="150" y1="308" x2="220" y2="308" stroke="#1f2937" stroke-width="3" marker-end="url(#arrow)"/>
  <circle cx="255" cy="308" r="22" fill="#fff7ed" stroke="#c2410c" stroke-width="2"/>
  <text x="246" y="316" font-size="28" font-family="Segoe UI, Arial">Σ</text>
  <line x1="277" y1="308" x2="360" y2="308" stroke="#1f2937" stroke-width="3" marker-end="url(#arrow)"/>
  <rect x="360" y="273" width="170" height="70" rx="8" fill="#eff6ff" stroke="#2563eb" stroke-width="2"/>
  <text x="412" y="302" font-size="20" font-family="Segoe UI, Arial">制御器</text>
  <text x="443" y="326" font-size="20" font-family="Segoe UI, Arial">C</text>
  <line x1="530" y1="308" x2="610" y2="308" stroke="#1f2937" stroke-width="3" marker-end="url(#arrow)"/>
  <rect x="610" y="273" width="170" height="70" rx="8" fill="#ecfdf5" stroke="#059669" stroke-width="2"/>
  <text x="662" y="315" font-size="22" font-family="Segoe UI, Arial">プラント P</text>
  <line x1="780" y1="308" x2="860" y2="308" stroke="#1f2937" stroke-width="3" marker-end="url(#arrow)"/>
  <text x="878" y="314" font-size="22" font-family="Segoe UI, Arial">出力 y</text>
  <line x1="840" y1="308" x2="840" y2="372" stroke="#1f2937" stroke-width="3"/>
  <line x1="840" y1="372" x2="255" y2="372" stroke="#1f2937" stroke-width="3"/>
  <line x1="255" y1="372" x2="255" y2="330" stroke="#1f2937" stroke-width="3" marker-end="url(#arrow)"/>
</svg>
