<svg xmlns="http://www.w3.org/2000/svg" width="900" height="280" viewBox="0 0 900 280">
  <rect width="900" height="280" fill="#ffffff"/>
  <text x="40" y="40" font-size="24" font-family="Segoe UI, Arial">RC 低域通過回路</text>
  <line x1="80" y1="140" x2="180" y2="140" stroke="#1f2937" stroke-width="4"/>
  <polyline points="180,140 195,120 210,160 225,120 240,160 255,120 270,140" fill="none" stroke="#1f2937" stroke-width="4"/>
  <line x1="270" y1="140" x2="420" y2="140" stroke="#1f2937" stroke-width="4"/>
  <line x1="420" y1="110" x2="420" y2="170" stroke="#1f2937" stroke-width="4"/>
  <line x1="450" y1="110" x2="450" y2="170" stroke="#1f2937" stroke-width="4"/>
  <line x1="435" y1="170" x2="435" y2="220" stroke="#1f2937" stroke-width="4"/>
  <line x1="400" y1="220" x2="470" y2="220" stroke="#1f2937" stroke-width="4"/>
  <line x1="410" y1="230" x2="460" y2="230" stroke="#1f2937" stroke-width="4"/>
  <line x1="420" y1="240" x2="450" y2="240" stroke="#1f2937" stroke-width="4"/>
  <text x="100" y="128" font-size="20" font-family="Segoe UI, Arial">入力 u(t)</text>
  <text x="210" y="105" font-size="22" font-family="Segoe UI, Arial">R</text>
  <text x="460" y="145" font-size="22" font-family="Segoe UI, Arial">C</text>
  <circle cx="435" cy="140" r="5" fill="#1f2937"/>
  <text x="470" y="110" font-size="20" font-family="Segoe UI, Arial">出力 y(t)</text>
</svg>
