<svg xmlns="http://www.w3.org/2000/svg" width="960" height="260" viewBox="0 0 960 260">
  <defs>
    <marker id="arrow" markerWidth="10" markerHeight="10" refX="9" refY="3" orient="auto">
      <path d="M0,0 L10,3 L0,6 Z" fill="#1f2937"/>
    </marker>
  </defs>
  <rect width="960" height="260" fill="#ffffff"/>
  <rect x="60" y="90" width="180" height="70" rx="8" fill="#f3e8ff" stroke="#7c3aed" stroke-width="2"/>
  <text x="98" y="132" font-size="24" font-family="Segoe UI, Arial">G(s)=N(s)/D(s)</text>
  <rect x="350" y="40" width="150" height="60" rx="8" fill="#eff6ff" stroke="#2563eb" stroke-width="2"/>
  <rect x="350" y="160" width="150" height="60" rx="8" fill="#ecfdf5" stroke="#059669" stroke-width="2"/>
  <text x="395" y="77" font-size="24" font-family="Segoe UI, Arial">N(s)</text>
  <text x="395" y="197" font-size="24" font-family="Segoe UI, Arial">D(s)</text>
  <rect x="620" y="40" width="130" height="60" rx="8" fill="#dbeafe" stroke="#1d4ed8" stroke-width="2"/>
  <rect x="620" y="160" width="130" height="60" rx="8" fill="#d1fae5" stroke="#047857" stroke-width="2"/>
  <text x="660" y="77" font-size="24" font-family="Segoe UI, Arial">零点</text>
  <text x="670" y="197" font-size="24" font-family="Segoe UI, Arial">極</text>
  <rect x="790" y="30" width="130" height="80" rx="8" fill="#ffffff" stroke="#94a3b8" stroke-width="2"/>
  <rect x="790" y="150" width="130" height="80" rx="8" fill="#ffffff" stroke="#94a3b8" stroke-width="2"/>
  <text x="806" y="78" font-size="18" font-family="Segoe UI, Arial">応答の形</text>
  
  <text x="806" y="186" font-size="18" font-family="Segoe UI, Arial">安定性</text>
  <text x="806" y="210" font-size="18" font-family="Segoe UI, Arial">振動性</text>
  <line x1="240" y1="125" x2="350" y2="70" stroke="#1f2937" stroke-width="3" marker-end="url(#arrow)"/>
  <line x1="240" y1="125" x2="350" y2="190" stroke="#1f2937" stroke-width="3" marker-end="url(#arrow)"/>
  <line x1="500" y1="70" x2="620" y2="70" stroke="#1f2937" stroke-width="3" marker-end="url(#arrow)"/>
  <line x1="500" y1="190" x2="620" y2="190" stroke="#1f2937" stroke-width="3" marker-end="url(#arrow)"/>
  <line x1="750" y1="70" x2="790" y2="70" stroke="#1f2937" stroke-width="3" marker-end="url(#arrow)"/>
  <line x1="750" y1="190" x2="790" y2="190" stroke="#1f2937" stroke-width="3" marker-end="url(#arrow)"/>
</svg>
