<svg xmlns="http://www.w3.org/2000/svg" width="920" height="280" viewBox="0 0 920 280">
  <defs>
    <marker id="arrow" markerWidth="10" markerHeight="10" refX="9" refY="3" orient="auto">
      <path d="M0,0 L10,3 L0,6 Z" fill="#1f2937"/>
    </marker>
  </defs>
  <rect width="920" height="280" fill="#ffffff"/>

  <rect x="40" y="100" width="180" height="70" rx="8" fill="#f3e8ff" stroke="#7c3aed" stroke-width="2"/>
  <text x="78" y="142" font-size="22" font-family="Segoe UI, Arial">G(s)=N(s)/D(s)</text>

  <rect x="320" y="60" width="150" height="60" rx="8" fill="#eff6ff" stroke="#2563eb" stroke-width="2"/>
  <rect x="320" y="160" width="150" height="60" rx="8" fill="#ecfdf5" stroke="#059669" stroke-width="2"/>
  <text x="370" y="96" font-size="22" font-family="Segoe UI, Arial">N(s)</text>
  <text x="370" y="196" font-size="22" font-family="Segoe UI, Arial">D(s)</text>

  <rect x="590" y="60" width="130" height="60" rx="8" fill="#dbeafe" stroke="#1d4ed8" stroke-width="2"/>
  <rect x="590" y="160" width="130" height="60" rx="8" fill="#d1fae5" stroke="#047857" stroke-width="2"/>
  <text x="632" y="96" font-size="22" font-family="Segoe UI, Arial">零点</text>
  <text x="644" y="196" font-size="22" font-family="Segoe UI, Arial">極</text>

  <rect x="790" y="50" width="110" height="80" rx="8" fill="#ffffff" stroke="#94a3b8" stroke-width="2"/>
  <rect x="790" y="150" width="110" height="80" rx="8" fill="#ffffff" stroke="#94a3b8" stroke-width="2"/>
  <text x="815" y="98" font-size="18" font-family="Segoe UI, Arial">応答の形</text>
  <text x="820" y="186" font-size="18" font-family="Segoe UI, Arial">安定性</text>
  <text x="820" y="210" font-size="18" font-family="Segoe UI, Arial">振動性</text>

  <line x1="220" y1="135" x2="320" y2="90" stroke="#1f2937" stroke-width="3" marker-end="url(#arrow)"/>
  <line x1="220" y1="135" x2="320" y2="190" stroke="#1f2937" stroke-width="3" marker-end="url(#arrow)"/>
  <line x1="470" y1="90" x2="590" y2="90" stroke="#1f2937" stroke-width="3" marker-end="url(#arrow)"/>
  <line x1="470" y1="190" x2="590" y2="190" stroke="#1f2937" stroke-width="3" marker-end="url(#arrow)"/>
  <line x1="720" y1="90" x2="790" y2="90" stroke="#1f2937" stroke-width="3" marker-end="url(#arrow)"/>
  <line x1="720" y1="190" x2="790" y2="190" stroke="#1f2937" stroke-width="3" marker-end="url(#arrow)"/>
</svg>
