<svg xmlns="http://www.w3.org/2000/svg" width="960" height="260" viewBox="0 0 960 260">
  <defs>
    <marker id="arrow" markerWidth="10" markerHeight="10" refX="9" refY="3" orient="auto">
      <path d="M0,0 L10,3 L0,6 Z" fill="#1f2937"/>
    </marker>
  </defs>
  <rect width="960" height="260" fill="#ffffff"/>
  <rect x="60" y="95" width="160" height="70" rx="8" fill="#fef3c7" stroke="#d97706" stroke-width="2"/>
  <text x="116" y="138" font-size="24" font-family="Segoe UI, Arial">zeta</text>
  <rect x="340" y="20" width="180" height="50" rx="8" fill="#eff6ff" stroke="#2563eb" stroke-width="2"/>
  <rect x="340" y="85" width="180" height="50" rx="8" fill="#eff6ff" stroke="#2563eb" stroke-width="2"/>
  <rect x="340" y="150" width="180" height="50" rx="8" fill="#eff6ff" stroke="#2563eb" stroke-width="2"/>
  <rect x="340" y="215" width="180" height="35" rx="8" fill="#eff6ff" stroke="#2563eb" stroke-width="2"/>
  <text x="406" y="52" font-size="22" font-family="Segoe UI, Arial">zeta = 0</text>
  <text x="384" y="117" font-size="22" font-family="Segoe UI, Arial">0 &lt; zeta &lt; 1</text>
  <text x="406" y="182" font-size="22" font-family="Segoe UI, Arial">zeta = 1</text>
  <text x="410" y="238" font-size="22" font-family="Segoe UI, Arial">zeta &gt; 1</text>
  <rect x="640" y="20" width="220" height="50" rx="8" fill="#ecfdf5" stroke="#059669" stroke-width="2"/>
  <rect x="640" y="85" width="220" height="50" rx="8" fill="#ecfdf5" stroke="#059669" stroke-width="2"/>
  <rect x="640" y="150" width="220" height="50" rx="8" fill="#ecfdf5" stroke="#059669" stroke-width="2"/>
  <rect x="640" y="215" width="220" height="35" rx="8" fill="#ecfdf5" stroke="#059669" stroke-width="2"/>
  <text x="694" y="52" font-size="22" font-family="Segoe UI, Arial">無減衰</text>
  <text x="682" y="117" font-size="22" font-family="Segoe UI, Arial">不足減衰</text>
  <text x="682" y="182" font-size="22" font-family="Segoe UI, Arial">臨界減衰</text>
  <text x="694" y="238" font-size="22" font-family="Segoe UI, Arial">過減衰</text>
  <line x1="220" y1="130" x2="340" y2="45" stroke="#1f2937" stroke-width="3" marker-end="url(#arrow)"/>
  <line x1="220" y1="130" x2="340" y2="110" stroke="#1f2937" stroke-width="3" marker-end="url(#arrow)"/>
  <line x1="220" y1="130" x2="340" y2="175" stroke="#1f2937" stroke-width="3" marker-end="url(#arrow)"/>
  <line x1="220" y1="130" x2="340" y2="232" stroke="#1f2937" stroke-width="3" marker-end="url(#arrow)"/>
  <line x1="520" y1="45" x2="640" y2="45" stroke="#1f2937" stroke-width="3" marker-end="url(#arrow)"/>
  <line x1="520" y1="110" x2="640" y2="110" stroke="#1f2937" stroke-width="3" marker-end="url(#arrow)"/>
  <line x1="520" y1="175" x2="640" y2="175" stroke="#1f2937" stroke-width="3" marker-end="url(#arrow)"/>
  <line x1="520" y1="232" x2="640" y2="232" stroke="#1f2937" stroke-width="3" marker-end="url(#arrow)"/>
</svg>
