<svg xmlns="http://www.w3.org/2000/svg" width="940" height="250" viewBox="0 0 940 250">
  <rect width="940" height="250" fill="#ffffff"/>
  <text x="40" y="34" font-size="24" font-family="Segoe UI, Arial">ばね‐質量‐ダンパー系</text>
  <line x1="60" y1="150" x2="120" y2="150" stroke="#1f2937" stroke-width="4"/>
  <polyline points="120,150 140,125 160,175 180,125 200,175 220,125 240,150" fill="none" stroke="#2563eb" stroke-width="4"/>
  <line x1="240" y1="150" x2="320" y2="150" stroke="#1f2937" stroke-width="4"/>
  <rect x="320" y="115" width="110" height="70" rx="8" fill="#f3f4f6" stroke="#374151" stroke-width="2"/>
  <text x="365" y="158" font-size="28" font-family="Segoe UI, Arial">m</text>
  <line x1="430" y1="150" x2="520" y2="150" stroke="#1f2937" stroke-width="4"/>
  <rect x="520" y="100" width="26" height="100" fill="#fde68a" stroke="#d97706" stroke-width="2"/>
  <line x1="546" y1="120" x2="620" y2="120" stroke="#1f2937" stroke-width="4"/>
  <line x1="546" y1="180" x2="620" y2="180" stroke="#1f2937" stroke-width="4"/>
  <line x1="620" y1="120" x2="620" y2="180" stroke="#1f2937" stroke-width="4"/>
  <line x1="620" y1="150" x2="710" y2="150" stroke="#1f2937" stroke-width="4"/>
  <text x="155" y="108" font-size="22" font-family="Segoe UI, Arial" fill="#2563eb">ばね k</text>
  <text x="535" y="88" font-size="22" font-family="Segoe UI, Arial" fill="#d97706">ダンパー b</text>
  <text x="455" y="136" font-size="22" font-family="Segoe UI, Arial">変位 x(t)</text>
</svg>
