<svg xmlns="http://www.w3.org/2000/svg" width="980" height="340" viewBox="0 0 980 340">
  <rect width="980" height="340" fill="#ffffff"/>
  <text x="40" y="36" font-size="24" font-family="Segoe UI, Arial">減衰の種類による自由応答</text>
  <line x1="80" y1="280" x2="930" y2="280" stroke="#1f2937" stroke-width="3"/>
  <line x1="80" y1="280" x2="80" y2="60" stroke="#1f2937" stroke-width="3"/>
  <path d="M80 280 C150 170, 220 35, 330 120 C430 190, 540 130, 660 145 C760 154, 850 150, 930 150" fill="none" stroke="#dc2626" stroke-width="4"/>
  <path d="M80 280 C190 220, 300 170, 420 130 C540 105, 700 95, 930 92" fill="none" stroke="#2563eb" stroke-width="4"/>
  <path d="M80 280 C220 250, 360 225, 560 195 C720 175, 840 165, 930 160" fill="none" stroke="#059669" stroke-width="4"/>
  <text x="760" y="142" font-size="20" font-family="Segoe UI, Arial" fill="#dc2626">不足減衰</text>
  <text x="760" y="92" font-size="20" font-family="Segoe UI, Arial" fill="#2563eb">臨界減衰</text>
  <text x="760" y="170" font-size="20" font-family="Segoe UI, Arial" fill="#059669">過減衰</text>
</svg>
