<svg xmlns="http://www.w3.org/2000/svg" width="1200" height="360" viewBox="0 0 1200 360">
  <rect width="1200" height="360" fill="#ffffff"/>
  <text x="40" y="42" font-size="28" font-family="Segoe UI, Arial">正弦入力と定常応答</text>

  <line x1="90" y1="140" x2="520" y2="140" stroke="#1f2937" stroke-width="2"/>
  <line x1="90" y1="80" x2="90" y2="200" stroke="#1f2937" stroke-width="2"/>
  <path d="M 90 140 C 120 100, 150 100, 180 140 C 210 180, 240 180, 270 140 C 300 100, 330 100, 360 140 C 390 180, 420 180, 450 140 C 480 100, 510 100, 520 120" fill="none" stroke="#2563eb" stroke-width="4"/>
  <text x="120" y="74" font-size="24" font-family="Segoe UI, Arial">入力</text>
  <text x="120" y="232" font-size="22" font-family="Segoe UI, Arial">振幅 A、角周波数 ω</text>

  <rect x="555" y="95" width="120" height="90" rx="12" fill="#f3f4f6" stroke="#4b5563" stroke-width="2"/>
  <text x="615" y="148" text-anchor="middle" font-size="28" font-family="Times New Roman, Times, serif">G(jω)</text>

  <line x1="720" y1="140" x2="1120" y2="140" stroke="#1f2937" stroke-width="2"/>
  <line x1="720" y1="80" x2="720" y2="200" stroke="#1f2937" stroke-width="2"/>
  <path d="M 720 154 C 750 108, 780 108, 810 154 C 840 200, 870 200, 900 154 C 930 108, 960 108, 990 154 C 1020 200, 1050 200, 1080 154 C 1090 138, 1105 138, 1120 154" fill="none" stroke="#dc2626" stroke-width="4"/>
  <text x="748" y="74" font-size="24" font-family="Segoe UI, Arial">出力</text>
  <text x="748" y="232" font-size="22" font-family="Segoe UI, Arial">振幅 |G(jω)|A、位相 ∠G(jω)</text>
</svg>
