<svg xmlns="http://www.w3.org/2000/svg" width="1180" height="470" viewBox="0 0 1180 470">
  <rect width="1180" height="470" fill="#ffffff"/>
  <text x="40" y="42" font-size="28" font-family="Segoe UI, Arial">ボード線図の基本軸</text>

  <text x="65" y="96" font-size="22" font-family="Segoe UI, Arial">振幅線図</text>
  <line x1="110" y1="210" x2="1060" y2="210" stroke="#1f2937" stroke-width="3"/>
  <line x1="160" y1="80" x2="160" y2="230" stroke="#1f2937" stroke-width="3"/>
  <line x1="340" y1="92" x2="340" y2="210" stroke="#cbd5e1" stroke-width="2" stroke-dasharray="6 6"/>
  <line x1="610" y1="92" x2="610" y2="210" stroke="#cbd5e1" stroke-width="2" stroke-dasharray="6 6"/>
  <line x1="880" y1="92" x2="880" y2="210" stroke="#cbd5e1" stroke-width="2" stroke-dasharray="6 6"/>
  <path d="M 160 120 L 420 120 L 610 160 L 880 188 L 1060 198" fill="none" stroke="#2563eb" stroke-width="4"/>
  <text x="118" y="88" font-size="22" font-family="Segoe UI, Arial">dB</text>
  <text x="300" y="236" font-size="22" font-family="Times New Roman, Times, serif">10<tspan baseline-shift="super" font-size="14">-1</tspan></text>
  <text x="600" y="236" font-size="22" font-family="Times New Roman, Times, serif">10<tspan baseline-shift="super" font-size="14">0</tspan></text>
  <text x="870" y="236" font-size="22" font-family="Times New Roman, Times, serif">10<tspan baseline-shift="super" font-size="14">1</tspan></text>
  <text x="1016" y="236" font-size="22" font-family="Segoe UI, Arial">ω</text>

  <text x="65" y="300" font-size="22" font-family="Segoe UI, Arial">位相線図</text>
  <line x1="110" y1="410" x2="1060" y2="410" stroke="#1f2937" stroke-width="3"/>
  <line x1="160" y1="285" x2="160" y2="430" stroke="#1f2937" stroke-width="3"/>
  <line x1="340" y1="298" x2="340" y2="410" stroke="#cbd5e1" stroke-width="2" stroke-dasharray="6 6"/>
  <line x1="610" y1="298" x2="610" y2="410" stroke="#cbd5e1" stroke-width="2" stroke-dasharray="6 6"/>
  <line x1="880" y1="298" x2="880" y2="410" stroke="#cbd5e1" stroke-width="2" stroke-dasharray="6 6"/>
  <path d="M 160 315 C 320 315, 440 332, 560 350 C 690 372, 820 395, 1060 404" fill="none" stroke="#dc2626" stroke-width="4"/>
  <text x="98" y="292" font-size="22" font-family="Segoe UI, Arial">度</text>
  <text x="300" y="438" font-size="22" font-family="Times New Roman, Times, serif">10<tspan baseline-shift="super" font-size="14">-1</tspan></text>
  <text x="600" y="438" font-size="22" font-family="Times New Roman, Times, serif">10<tspan baseline-shift="super" font-size="14">0</tspan></text>
  <text x="870" y="438" font-size="22" font-family="Times New Roman, Times, serif">10<tspan baseline-shift="super" font-size="14">1</tspan></text>
  <text x="1016" y="438" font-size="22" font-family="Segoe UI, Arial">ω</text>
</svg>
